<svg xmlns="http://www.w3.org/2000/svg" aria-labelledby="main-header__logotype-title" focusable="false" height="32" role="img" viewBox="0 0 32 32" width="32">
                    <title id="main-header__logotype-title" stroke="none" fill="#000000" stroke-width="1px">Devbridge logotype</title>
                    <path d="M0 0h32v32H0z" fill="#ff3454" stroke="none" stroke-width="1px"></path> <g fill="#ffffff" stroke="none" stroke-width="1px"> <path d="M21.9 18.3c-1.3 0-2.4-1.1-2.4-2.4 0-1.3 1.1-2.4 2.4-2.4 1.3 0 2.4 1.1 2.4 2.4-.1 1.3-1.1 2.4-2.4 2.4m0-7.8c-.9 0-1.7.2-2.4.6V5.8h-3v10.1c0 3 2.4 5.4 5.3 5.4 3 0 5.3-2.4 5.3-5.4s-2.3-5.4-5.2-5.4" stroke="none" fill="#ffffff" stroke-width="1px"></path> <path d="M10 22.3c-1.3 0-2.4-1.1-2.4-2.4 0-1.3 1.1-2.4 2.4-2.4 1.3 0 2.4 1.1 2.4 2.4 0 1.4-1.1 2.4-2.4 2.4m5.2-3.8c0-.1 0-.1-.1-.2-.1-.5-.2-1.1-.2-1.7V9.8h-3v5.1c-.6-.2-1.2-.3-1.9-.3-3 0-5.3 2.4-5.3 5.4 0 3 2.4 5.4 5.3 5.4 1.8 0 3.4-.9 4.4-2.3.9 1 2 1.8 3.3 2.3l1.5-2.6c-1.9-.8-3.4-2.3-4-4.3" stroke="none" fill="#ffffff" stroke-width="1px"></path> </g> 
                </svg>