<svg xmlns="http://www.w3.org/2000/svg" id="wizard--programmer" viewBox="0 0 124 112" x="142" y="126" width="124" height="112" data-name="Layer 1"><defs><style>.lcls-1{fill:#FFF}.lcls-2{fill:#FF3454}.lcls-3{fill:#FFF}.lcls-4{fill:#FF3454}.lcls-5{fill:#FFF}</style></defs><title>Artboard 10</title><g id="lWizard"><path class="lcls-1" d="M 41.44 80.02 l 20.2 -27.97 L 73.83 1.8 l 12.06 49.75 l 20.33 28.47 H 92.8 l 7.32 30.18 H 47.54 l 7.32 -30.18 H 41.44 Z"/><path class="lcls-2" d="M 47.54 111.84 h 52.58 a 1.64 1.64 0 0 0 1.6 -2 l -6.83 -28.18 h 11.33 a 1.64 1.64 0 0 0 1.34 -2.6 L 87.42 50.85 l -12 -49.44 a 1.64 1.64 0 0 0 -3.2 0 l -12.1 49.94 l -20 27.71 a 1.64 1.64 0 0 0 1.33 2.61 h 11.32 l -6.83 28.15 a 1.64 1.64 0 0 0 1.6 2 Z M 98 108.56 H 49.63 l 6.83 -28.15 a 1.64 1.64 0 0 0 -1.6 -2 h -10.2 L 63 53 a 1.65 1.65 0 0 0 0.27 -0.58 L 73.83 8.78 L 84.3 51.94 a 1.65 1.65 0 0 0 0.26 0.57 L 103 78.37 H 92.8 a 1.64 1.64 0 0 0 -1.6 2 Z"/><path class="lcls-3" d="M 61.43 53.1 l 12.45 -6.03 l 12.36 5.91 l -12.47 17.77 L 61.43 53.1 Z"/><path class="lcls-2" d="M 73.76 72.39 a 1.64 1.64 0 0 0 1.35 -0.7 l 12.48 -17.77 a 1.64 1.64 0 0 0 -0.59 -2.43 l -12.41 -5.9 a 1.64 1.64 0 0 0 -1.43 0 l -12.45 6 a 1.64 1.64 0 0 0 -0.63 2.41 l 12.34 17.69 a 1.64 1.64 0 0 0 1.35 0.7 Z m 10 -18.77 l -10 14.26 l -9.88 -14.14 l 10 -4.84 Z"/><path class="lcls-3" d="M 81.63 33.98 H 65.92 L 61.43 53.1 l 12.45 -6.03 l 12.36 5.91 l -4.61 -19 Z"/><path class="lcls-2" d="M 61.43 54.75 a 1.64 1.64 0 0 0 0.72 -0.16 l 11.73 -5.69 l 11.65 5.56 a 1.64 1.64 0 0 0 2.31 -1.87 l -4.61 -19 a 1.64 1.64 0 0 0 -1.6 -1.26 H 65.92 a 1.64 1.64 0 0 0 -1.6 1.27 l -4.49 19.13 a 1.64 1.64 0 0 0 1.6 2 Z m 12.45 -9.32 a 1.65 1.65 0 0 0 -0.72 0.16 l -9.34 4.52 l 3.4 -14.49 h 13.12 L 83.83 50 l -9.24 -4.41 a 1.64 1.64 0 0 0 -0.71 -0.16 Z"/><circle class="lcls-4" cx="77.83" cy="41.28" r="1.7"/><circle class="lcls-4" cx="69.84" cy="41.28" r="1.7"/><path class="lcls-2" d="M 73.83 95.17 a 1.64 1.64 0 0 0 1.64 -1.64 V 80 a 1.64 1.64 0 1 0 -3.29 0 v 13.5 a 1.64 1.64 0 0 0 1.65 1.67 Z M 65.92 102 a 1.64 1.64 0 0 0 1.64 -1.64 V 80 a 1.64 1.64 0 1 0 -3.29 0 v 20.3 a 1.64 1.64 0 0 0 1.65 1.7 Z"/><path class="lcls-2" d="M 52.19 81.66 h 44.55 a 1.64 1.64 0 0 0 0 -3.29 H 52.19 a 1.64 1.64 0 1 0 0 3.29 Z"/><path class="lcls-5" d="M 100.12 75.28 l 10.61 4.8 l 11.05 -4.8 V 60.49 l -11.05 4.8 l -10.61 -4.8 v 14.79 Z"/><path class="lcls-2" d="M 110.73 81.72 a 1.64 1.64 0 0 0 0.66 -0.14 l 11 -4.8 a 1.64 1.64 0 0 0 1 -1.51 V 60.49 a 1.64 1.64 0 0 0 -2.3 -1.51 l -10.37 4.51 L 100.8 59 a 1.64 1.64 0 0 0 -2.32 1.5 v 14.78 a 1.64 1.64 0 0 0 1 1.5 l 10.61 4.8 a 1.64 1.64 0 0 0 0.64 0.14 Z m 9.4 -7.52 l -9.38 4.08 l -9 -4.06 V 63 l 8.29 3.75 a 1.64 1.64 0 0 0 1.33 0 l 8.74 -3.8 Z m -20 1.08 Z"/><path class="lcls-1" transform="rotate(135 36.433 75.257)" d="M 33.16 48.84 h 6.53 v 52.84 h -6.53 Z"/><path class="lcls-2" d="M 52.8 97.8 a 1.55 1.55 0 0 0 1.1 -0.45 l 4.62 -4.62 a 1.55 1.55 0 0 0 0 -2.19 L 21.16 53.17 a 1.55 1.55 0 0 0 -2.19 0 l -4.62 4.62 a 1.55 1.55 0 0 0 0 2.19 L 51.7 97.35 a 1.55 1.55 0 0 0 1.1 0.45 Z m 2.43 -6.17 l -2.43 2.42 l -35.17 -35.16 l 2.43 -2.43 Z"/><path class="lcls-3" transform="rotate(135 21.748 60.575)" d="M 18.48 54.92 h 6.53 v 11.31 h -6.53 Z"/><path class="lcls-2" d="M 23.44 68.44 a 1.55 1.55 0 0 0 1.1 -0.45 l 4.62 -4.62 a 1.55 1.55 0 0 0 0 -2.19 l -8 -8 a 1.55 1.55 0 0 0 -1.1 -0.45 a 1.55 1.55 0 0 0 -1.1 0.45 l -4.62 4.62 a 1.55 1.55 0 0 0 0 2.19 l 8 8 a 1.55 1.55 0 0 0 1.1 0.45 Z m 2.43 -6.17 l -2.43 2.43 l -5.8 -5.8 l 2.43 -2.43 Z M 11.36 51.74 a 1.55 1.55 0 0 0 1.1 -2.65 l -4 -4 a 1.55 1.55 0 0 0 -2.19 2.19 l 4 4 a 1.55 1.55 0 0 0 1.09 0.46 Z M 7.38 73.12 a 1.55 1.55 0 0 0 1.1 -0.45 l 4 -4 a 1.55 1.55 0 0 0 -2.19 -2.19 l -4 4 a 1.55 1.55 0 0 0 1.1 2.65 Z M 7.75 60.44 a 1.55 1.55 0 0 0 0 -3.1 H 2.13 a 1.55 1.55 0 1 0 0 3.1 Z M 20.06 48.13 a 1.55 1.55 0 0 0 1.55 -1.55 V 41 a 1.55 1.55 0 0 0 -1.55 -1.55 A 1.55 1.55 0 0 0 18.51 41 v 5.62 a 1.55 1.55 0 0 0 1.55 1.51 Z M 32.37 60.44 H 38 a 1.55 1.55 0 0 0 0 -3.1 h -5.63 a 1.55 1.55 0 0 0 0 3.1 Z M 20.06 78.37 a 1.55 1.55 0 0 0 1.55 -1.55 V 71.2 a 1.55 1.55 0 1 0 -3.1 0 v 5.62 a 1.55 1.55 0 0 0 1.55 1.55 Z M 28.76 51.74 a 1.55 1.55 0 0 0 1.1 -0.45 l 4 -4 a 1.55 1.55 0 0 0 -2.19 -2.19 l -4 4 a 1.55 1.55 0 0 0 1.1 2.65 Z"/><circle class="lcls-3" cx="110.82" cy="80.06" r="5.88"/><path class="lcls-2" d="M 110.82 87.59 a 7.53 7.53 0 1 0 -7.53 -7.53 a 7.53 7.53 0 0 0 7.53 7.53 Z m 0 -11.76 a 4.24 4.24 0 1 1 -4.24 4.24 a 4.24 4.24 0 0 1 4.24 -4.24 Z"/><circle class="lcls-3" cx="47.13" cy="85.94" r="5.88"/><path class="lcls-2" d="M 47.13 93.47 a 7.53 7.53 0 1 0 -7.53 -7.53 a 7.53 7.53 0 0 0 7.53 7.53 Z m 0 -11.76 a 4.24 4.24 0 1 1 -4.24 4.24 a 4.24 4.24 0 0 1 4.24 -4.24 Z"/></g></svg>